<svg width="80" height="80" viewBox="0 0 80 80" fill="none" xmlns="http://www.w3.org/2000/svg">
<path d="M52.2052 14.1706L11.7919 39.7872L8.31689 34.3039V29.5789C8.31689 27.8589 9.18856 26.2556 10.6319 25.3189L34.1236 10.0756C37.7019 7.75391 42.3136 7.75225 45.8919 10.0739L52.2052 14.1706Z" fill="#40C4FF"/>
<path d="M45.5284 9.84961C45.65 9.92128 45.77 9.99628 45.89 10.0746L64.2234 21.9679L18.765 50.7813L11.79 39.7763L45.1517 18.5879C48.3134 16.5813 48.4517 12.0663 45.5284 9.84961Z" fill="#1976D2"/>
<path d="M36.9033 56.2843L18.7666 50.7826L57.3266 26.3393C60.5749 24.2809 60.5666 19.5393 57.3116 17.4926L57.1383 17.3843L57.6383 17.6943L69.3733 25.3076C70.8166 26.2443 71.6883 27.8476 71.6883 29.5676V34.1409L36.9033 56.2843Z" fill="#0D47A1"/>
<path d="M34.81 71.6696H60.6817C66.7583 71.6696 71.685 66.7429 71.685 60.6662V29.6646C71.685 31.4596 70.7617 33.1295 69.2417 34.0845L30.7583 58.2479C28.6817 59.5512 27.4233 61.8312 27.4233 64.2812C27.4233 68.3629 30.73 71.6696 34.81 71.6696Z" fill="#29B6F6"/>
<path d="M45.3299 71.6678H19.3149C13.2382 71.6678 8.31152 66.7411 8.31152 60.6644V29.6411C8.31152 31.4344 9.23152 33.1011 10.7465 34.0561L49.1915 58.2944C51.2965 59.6211 52.5732 61.9361 52.5732 64.4244C52.5732 68.4244 49.3299 71.6678 45.3299 71.6678Z" fill="url(#paint0_radial_4_22058)"/>
<path d="M45.3299 71.6678H19.3149C13.2382 71.6678 8.31152 66.7411 8.31152 60.6644V29.6411C8.31152 31.4344 9.23152 33.1011 10.7465 34.0561L49.1915 58.2944C51.2965 59.6211 52.5732 61.9361 52.5732 64.4244C52.5732 68.4244 49.3299 71.6678 45.3299 71.6678Z" fill="#80D8FF"/>
<path d="M18.8032 60.3941C16.4732 60.3941 14.5616 59.6658 13.0666 58.2075C11.5716 56.7508 10.8232 54.8491 10.8232 52.5025C10.8232 50.0258 11.5816 48.0208 13.0999 46.4908C14.6182 44.9608 16.6049 44.1958 19.0616 44.1958C21.3832 44.1958 23.2716 44.9275 24.7299 46.3925C26.1949 47.8575 26.9282 49.7875 26.9282 52.1841C26.9282 54.6475 26.1682 56.6325 24.6516 58.1408C23.1416 59.6441 21.1932 60.3941 18.8032 60.3941ZM18.8716 57.3025C20.1416 57.3025 21.1632 56.8691 21.9366 56.0025C22.7099 55.1358 23.0966 53.9291 23.0966 52.3841C23.0966 50.7741 22.7199 49.5208 21.9699 48.6241C21.2182 47.7275 20.2149 47.2808 18.9616 47.2808C17.6699 47.2808 16.6282 47.7441 15.8399 48.6691C15.0516 49.5875 14.6566 50.8041 14.6566 52.3191C14.6566 53.8575 15.0516 55.0741 15.8399 55.9691C16.6282 56.8575 17.6382 57.3025 18.8716 57.3025Z" fill="white"/>
<path d="M10.755 38.3335H27.5783C30.7567 38.3335 33.3333 40.9102 33.3333 44.0885V60.9118C33.3333 64.0902 30.7567 66.6668 27.5783 66.6668H10.755C7.57667 66.6668 5 64.0902 5 60.9118V44.0885C5 40.9102 7.57667 38.3335 10.755 38.3335Z" fill="#1565C0"/>
<path d="M19.0883 60.861C16.7549 60.861 14.8383 60.1076 13.3399 58.6026C11.8416 57.0976 11.0933 55.1326 11.0933 52.7076C11.0933 50.1476 11.8533 48.0776 13.3749 46.4976C14.8966 44.916 16.8866 44.126 19.3483 44.126C21.6749 44.126 23.5683 44.8826 25.0283 46.396C26.4966 47.9093 27.2299 49.9043 27.2299 52.381C27.2299 54.926 26.4699 56.9776 24.9483 58.5343C23.4349 60.086 21.4816 60.861 19.0883 60.861ZM19.1549 57.666C20.4266 57.666 21.4516 57.2176 22.2266 56.3226C23.0016 55.426 23.3899 54.181 23.3899 52.5843C23.3899 50.921 23.0133 49.626 22.2616 48.6993C21.5083 47.7726 20.5033 47.311 19.2466 47.311C17.9516 47.311 16.9083 47.7893 16.1183 48.746C15.3283 49.6943 14.9333 50.951 14.9333 52.5176C14.9333 54.106 15.3283 55.3626 16.1183 56.2893C16.9083 57.2076 17.9199 57.666 19.1549 57.666Z" fill="white"/>
<defs>
<radialGradient id="paint0_radial_4_22058" cx="0" cy="0" r="1" gradientUnits="userSpaceOnUse" gradientTransform="translate(30.697 46.0275) rotate(123.339) scale(36.2702 94.1253)">
<stop stop-color="#49DEFF"/>
<stop offset="0.724" stop-color="#29C3FF"/>
</radialGradient>
</defs>
</svg>
