<svg width="80" height="80" viewBox="0 0 80 80" fill="none" xmlns="http://www.w3.org/2000/svg">
<g clip-path="url(#clip0_4_22073)">
<mask id="mask0_4_22073" style="mask-type:luminance" maskUnits="userSpaceOnUse" x="0" y="0" width="80" height="80">
<path d="M79.062 32.1875V47.8115C79.062 65.0595 65.06 79.0615 47.812 79.0615H32.188C14.94 79.0615 0.937988 65.0595 0.937988 47.8115V32.1875C0.937988 14.9395 14.94 0.9375 32.188 0.9375H47.812C65.06 0.9375 79.062 14.9395 79.062 32.1875Z" fill="white"/>
</mask>
<g mask="url(#mask0_4_22073)">
<path d="M0 8C0 5.87827 0.842855 3.84344 2.34315 2.34315C3.84344 0.842855 5.87827 0 8 0H72C74.1217 0 76.1566 0.842855 77.6569 2.34315C79.1571 3.84344 80 5.87827 80 8V72C80 74.1217 79.1571 76.1566 77.6569 77.6569C76.1566 79.1571 74.1217 80 72 80H8C5.87827 80 3.84344 79.1571 2.34315 77.6569C0.842855 76.1566 0 74.1217 0 72V8Z" fill="url(#paint0_linear_4_22073)"/>
</g>
<path d="M23.7624 46.1736H13.7608C13.0594 46.1736 12.4325 45.7553 12.1635 45.1072C12.0321 44.7912 11.9977 44.4433 12.0644 44.1077C12.1312 43.7721 12.2962 43.464 12.5385 43.2223L19.4658 36.295H14.5008C13.1371 36.295 12.0313 35.1892 12.0313 33.8256H21.2547C21.9563 33.8256 22.5832 34.2448 22.8513 34.8929C22.983 35.2086 23.0178 35.5563 22.9512 35.8918C22.8846 36.2272 22.7197 36.5353 22.4774 36.7767L15.55 43.7042H21.2922C22.6568 43.7042 23.7624 44.8098 23.7624 46.1736ZM67.9686 38.4559C67.9686 35.8012 65.8077 33.6401 63.1528 33.6401C61.7327 33.6401 60.4536 34.2589 59.5716 35.2406C58.6897 34.259 57.4107 33.6401 55.9907 33.6401C53.3358 33.6401 51.1747 35.8011 51.1747 38.4559V46.1736C52.5385 46.1736 53.6441 45.0678 53.6441 43.7042V38.4559C53.6441 37.1628 54.6974 36.1106 55.9907 36.1106C57.2847 36.1106 58.3371 37.1628 58.3371 38.4559V43.7042C58.3371 45.0678 59.4427 46.1736 60.8064 46.1736V38.4559C60.8064 37.1628 61.8586 36.1106 63.1528 36.1106C64.446 36.1106 65.4993 37.1628 65.4993 38.4559V43.7042C65.4993 45.0678 66.6039 46.1736 67.9686 46.1736V38.4559ZM49.94 40C49.94 43.5117 47.0927 46.359 43.5811 46.359C40.0686 46.359 37.2211 43.5117 37.2211 40C37.2211 36.4875 40.0685 33.6401 43.5811 33.6401C47.0927 33.6401 49.94 36.4875 49.94 40ZM47.4707 40C47.4707 37.8512 45.7289 36.1104 43.5811 36.1104C41.4322 36.1104 39.6916 37.8511 39.6916 40C39.6916 42.148 41.4322 43.8897 43.5811 43.8897C45.7289 43.8897 47.4707 42.148 47.4707 40ZM36.2335 40C36.2335 43.5117 33.3871 46.359 29.8746 46.359C26.3619 46.359 23.5155 43.5117 23.5155 40C23.5155 36.4875 26.3619 33.6401 29.8746 33.6401C33.3871 33.6401 36.2335 36.4875 36.2335 40ZM33.7641 40C33.7641 37.8512 32.0224 36.1104 29.8746 36.1104C27.7266 36.1104 25.9849 37.8511 25.9849 40C25.9849 42.148 27.7266 43.8897 29.8746 43.8897C32.0224 43.8897 33.7641 42.148 33.7641 40Z" fill="white"/>
</g>
<defs>
<linearGradient id="paint0_linear_4_22073" x1="12.6791" y1="87.3211" x2="67.3201" y2="-7.31986" gradientUnits="userSpaceOnUse">
<stop stop-color="#0845BF"/>
<stop offset="0.6" stop-color="#0B5CFF"/>
<stop offset="1" stop-color="#4F90EE"/>
</linearGradient>
<clipPath id="clip0_4_22073">
<rect width="80" height="80" fill="white"/>
</clipPath>
</defs>
</svg>
