<svg viewBox="0 0 237.971 237.971" fill="none" xmlns="http://www.w3.org/2000/svg" aria-hidden="true">
  <path
    d="M95.4505 158.879C94.4329 154.935 92.3769 151.335 89.4963 148.454C86.6157 145.574 83.0159 143.518 79.0712 142.5L9.14298 124.468C7.94994 124.129 6.89991 123.411 6.15222 122.421C5.40453 121.432 5 120.226 5 118.985C5 117.745 5.40453 116.539 6.15222 115.549C6.89991 114.56 7.94994 113.841 9.14298 113.503L79.0712 95.4594C83.0145 94.4427 86.6134 92.3884 89.4938 89.5099C92.3743 86.6315 94.4311 83.034 95.4505 79.0915L113.483 9.1632C113.818 7.96545 114.536 6.91024 115.527 6.15856C116.517 5.40688 117.727 5 118.971 5C120.215 5 121.424 5.40688 122.415 6.15856C123.406 6.91024 124.124 7.96545 124.459 9.1632L142.48 79.0915C143.497 83.0361 145.553 86.6359 148.434 89.5165C151.315 92.3971 154.914 94.4531 158.859 95.4708L228.787 113.491C229.99 113.823 231.05 114.54 231.806 115.533C232.562 116.525 232.971 117.738 232.971 118.985C232.971 120.233 232.562 121.446 231.806 122.438C231.05 123.431 229.99 124.148 228.787 124.479L158.859 142.5C154.914 143.518 151.315 145.574 148.434 148.454C145.553 151.335 143.497 154.935 142.48 158.879L124.448 228.808C124.112 230.005 123.395 231.06 122.404 231.812C121.413 232.564 120.203 232.971 118.959 232.971C117.716 232.971 116.506 232.564 115.515 231.812C114.524 231.06 113.806 230.005 113.471 228.808L95.4505 158.879Z"
    stroke="#ffffff"
    stroke-width="10"
    stroke-linecap="round"
    stroke-linejoin="round"
  />
</svg>
