<svg width="194" height="41" viewBox="0 0 194 41" fill="none" xmlns="http://www.w3.org/2000/svg">
<path d="M26.7117 17.5076C27.9999 16.5951 28.7959 15.1348 28.7959 13.6053C28.7959 10.2105 26.1831 8 22.1547 8H18.0625V17.5076H26.7117Z" fill="#61A47A"/>
<path d="M17.3281 8H12V17.5076H17.3281V8Z" fill="#CF5A5B"/>
<path d="M17.3281 18.2344H12V29.7055H17.3281V18.2344Z" fill="#838485"/>
<path d="M26.9771 18.2344H18.0625V29.7055H22.2382C26.9792 29.7055 30.0882 27.0961 30.0882 23.0895C30.0882 21.0464 28.8879 19.2141 26.9781 18.2344H26.9771Z" fill="#3B659C"/>
<path d="M36.6953 27.2601V9.89844H44.1112C45.1364 9.89844 46.0334 10.0803 46.8023 10.4441C47.5712 10.8079 48.1664 11.3163 48.5881 11.9694C49.0097 12.6226 49.2205 13.3956 49.2205 14.2885C49.2205 14.8011 49.1131 15.2971 48.8981 15.7766C48.6832 16.2561 48.3979 16.6736 48.0424 17.0291C47.6869 17.3846 47.2777 17.6533 46.8147 17.8352C47.4596 18.0171 48.03 18.3147 48.5261 18.7281C49.0221 19.1415 49.419 19.6375 49.7166 20.2162C50.0142 20.795 50.163 21.4233 50.163 22.1012C50.163 23.1264 49.9109 24.0276 49.4066 24.8047C48.9022 25.5818 48.1995 26.1854 47.2984 26.6153C46.3972 27.0452 45.3596 27.2601 44.1856 27.2601H36.6953ZM40.4157 16.6695H43.5408C43.9707 16.6695 44.3427 16.591 44.6569 16.4339C44.9711 16.2768 45.2191 16.0618 45.401 15.789C45.5829 15.5162 45.6738 15.1979 45.6738 14.8341C45.6738 14.4704 45.5829 14.1769 45.401 13.904C45.2191 13.6312 44.9711 13.4204 44.6569 13.2716C44.3427 13.1228 43.9707 13.0483 43.5408 13.0483H40.4157V16.6695ZM40.4157 24.1102H43.8384C44.3345 24.1102 44.7809 24.0152 45.1777 23.825C45.5746 23.6349 45.8846 23.3662 46.1078 23.0189C46.3311 22.6717 46.4427 22.2831 46.4427 21.8532C46.4427 21.3902 46.3311 20.9934 46.1078 20.6627C45.8846 20.332 45.5746 20.0716 45.1777 19.8814C44.7809 19.6913 44.3345 19.5962 43.8384 19.5962H40.4157V24.1102Z" fill="#CF5A5B"/>
<path d="M58.2464 27.4617C57.0228 27.4617 55.9108 27.2467 54.9105 26.8168C53.9101 26.3869 53.0627 25.771 52.3682 24.969C51.6738 24.1671 51.1942 23.1956 50.9297 22.0547L54.278 21.0626C54.526 22.0878 55.0097 22.8856 55.729 23.4561C56.4482 24.0265 57.2874 24.3118 58.2464 24.3118C58.7259 24.3118 59.1641 24.2415 59.5609 24.1009C59.9578 23.9604 60.2719 23.7372 60.5034 23.4313C60.7349 23.1254 60.8507 22.7492 60.8507 22.3028C60.8507 21.8563 60.6853 21.4636 60.3546 21.1742C60.0239 20.8849 59.5899 20.6493 59.0525 20.4674C58.5151 20.2855 57.9281 20.1077 57.2915 19.9341C56.6549 19.7605 56.0101 19.558 55.3569 19.3265C54.7038 19.095 54.1085 18.7891 53.5711 18.4088C53.0338 18.0285 52.5997 17.5407 52.269 16.9454C51.9383 16.3502 51.773 15.6061 51.773 14.7132C51.773 13.688 52.0499 12.8034 52.6039 12.0594C53.1578 11.3153 53.8936 10.7366 54.8113 10.3232C55.729 9.90981 56.7417 9.70312 57.8496 9.70312C58.9574 9.70312 59.9412 9.88501 60.8507 10.2488C61.7601 10.6125 62.5331 11.1293 63.1697 11.7989C63.8063 12.4686 64.2403 13.2416 64.4718 14.118L61.2227 15.4077C60.9747 14.5975 60.5572 13.9691 59.9702 13.5227C59.3832 13.0763 58.6763 12.853 57.8496 12.853C57.3701 12.853 56.9525 12.9192 56.597 13.0515C56.2415 13.1837 55.9687 13.3739 55.7786 13.6219C55.5884 13.8699 55.4933 14.1676 55.4933 14.5148C55.4933 14.9447 55.6587 15.2795 55.9894 15.5193C56.3201 15.7591 56.7541 15.9575 57.2915 16.1146C57.8289 16.2716 58.4159 16.4287 59.0525 16.5858C59.6891 16.7429 60.3298 16.9413 60.9747 17.1811C61.6195 17.4208 62.2148 17.7391 62.7604 18.136C63.3061 18.5328 63.7443 19.0454 64.075 19.6737C64.4057 20.302 64.571 21.0957 64.571 22.0547C64.571 23.1956 64.2899 24.1712 63.7277 24.9814C63.1656 25.7916 62.4091 26.4076 61.4583 26.8292C60.5076 27.2508 59.4369 27.4617 58.2464 27.4617Z" fill="#61A47A"/>
<path d="M66.5312 27.2601V9.89844H73.724C74.8979 9.89844 75.919 10.1175 76.7871 10.5557C77.6551 10.9939 78.3289 11.6181 78.8085 12.4283C79.288 13.2385 79.5277 14.181 79.5277 15.2558C79.5277 16.3305 79.288 17.273 78.8085 18.0832C78.3289 18.8935 77.6551 19.5218 76.7871 19.9682C75.919 20.4147 74.8979 20.6379 73.724 20.6379H70.2268V27.2601H66.5312ZM70.2268 17.488H73.3023C73.8314 17.488 74.2861 17.397 74.6664 17.2152C75.0467 17.0333 75.3402 16.7728 75.5469 16.4339C75.7536 16.0949 75.857 15.7022 75.857 15.2558C75.857 14.5778 75.6296 14.0404 75.1749 13.6436C74.7202 13.2468 74.096 13.0483 73.3023 13.0483H70.2268V17.488Z" fill="#838485"/>
<path d="M82.0547 28.2758V10.9141H89.4706C90.4958 10.9141 91.3928 11.0959 92.1617 11.4597C92.9306 11.8235 93.5258 12.3319 93.9475 12.9851C94.3691 13.6382 94.5799 14.4112 94.5799 15.3041C94.5799 15.8167 94.4724 16.3127 94.2575 16.7922C94.0425 17.2718 93.7573 17.6893 93.4018 18.0448C93.0463 18.4003 92.6371 18.669 92.1741 18.8508C92.8189 19.0327 93.3894 19.3304 93.8855 19.7437C94.3815 20.1571 94.7783 20.6531 95.076 21.2319C95.3736 21.8106 95.5224 22.4389 95.5224 23.1169C95.5224 24.142 95.2703 25.0432 94.7659 25.8203C94.2616 26.5975 93.5589 27.201 92.6577 27.6309C91.7566 28.0608 90.719 28.2758 89.545 28.2758H82.0547ZM85.7751 17.6851H88.9002C89.3301 17.6851 89.7021 17.6066 90.0163 17.4495C90.3304 17.2924 90.5785 17.0775 90.7603 16.8046C90.9422 16.5318 91.0332 16.2135 91.0332 15.8497C91.0332 15.486 90.9422 15.1925 90.7603 14.9197C90.5785 14.6468 90.3304 14.436 90.0163 14.2872C89.7021 14.1384 89.3301 14.064 88.9002 14.064H85.7751V17.6851ZM85.7751 25.1259H89.1978C89.6938 25.1259 90.1403 25.0308 90.5371 24.8406C90.934 24.6505 91.244 24.3818 91.4672 24.0345C91.6904 23.6873 91.802 23.2987 91.802 22.8688C91.802 22.4059 91.6904 22.009 91.4672 21.6783C91.244 21.3476 90.934 21.0872 90.5371 20.897C90.1403 20.7069 89.6938 20.6118 89.1978 20.6118H85.7751V25.1259Z" fill="#3B659C"/>
<path d="M96.9609 28.2789V10.7188H100.433V28.2789H96.9609ZM96.9609 13.5214V10.7188H100.433V13.5214H96.9609ZM96.9609 28.2789V25.4762H100.433V28.2789H96.9609Z" fill="#3B659C"/>
<path d="M107.155 28.4723C106.246 28.4723 105.44 28.2863 104.737 27.9142C104.034 27.5422 103.484 27.0172 103.087 26.3393C102.691 25.6613 102.492 24.8511 102.492 23.9086V15.7734H105.94V23.0157C105.94 23.4953 106.035 23.9252 106.225 24.3055C106.415 24.6858 106.68 24.971 107.019 25.1612C107.358 25.3513 107.75 25.4464 108.197 25.4464C108.809 25.4464 109.329 25.281 109.759 24.9503C110.189 24.6196 110.52 24.136 110.751 23.4994C110.983 22.8628 111.099 22.0981 111.099 21.2052V15.7734H114.546V28.2739H111.099V26.7857C110.884 27.0668 110.59 27.3396 110.218 27.6042C109.846 27.8688 109.4 28.0796 108.879 28.2367C108.358 28.3937 107.783 28.4723 107.155 28.4723Z" fill="#3B659C"/>
<path d="M122.605 28.4754C121.332 28.4754 120.207 28.1984 119.232 27.6445C118.256 27.0906 117.5 26.3258 116.962 25.3503C116.425 24.3747 116.156 23.2586 116.156 22.002C116.156 21.0595 116.309 20.1996 116.615 19.4225C116.921 18.6454 117.355 17.9674 117.917 17.3887C118.479 16.81 119.145 16.3635 119.914 16.0494C120.683 15.7352 121.53 15.5781 122.456 15.5781C123.498 15.5781 124.428 15.76 125.246 16.1238C126.065 16.4875 126.747 17.0043 127.293 17.6739C127.838 18.3436 128.223 19.1125 128.446 19.9806C128.669 20.8486 128.715 21.787 128.582 22.7956H118.711V20.3154H125.011C124.994 19.8855 124.878 19.5093 124.663 19.1869C124.449 18.8644 124.155 18.6164 123.783 18.4428C123.411 18.2692 122.969 18.1824 122.456 18.1824C122.01 18.1824 121.596 18.2651 121.216 18.4304C120.836 18.5958 120.521 18.8396 120.273 19.1621C120.025 19.4845 119.835 19.8772 119.703 20.3402C119.571 20.8032 119.505 21.3323 119.505 21.9275C119.505 22.6882 119.629 23.3454 119.877 23.8993C120.125 24.4533 120.484 24.879 120.956 25.1767C121.427 25.4743 121.977 25.6231 122.605 25.6231C123.035 25.6231 123.436 25.5487 123.808 25.3999C124.18 25.2511 124.494 25.0485 124.75 24.7922C125.007 24.5359 125.184 24.2424 125.284 23.9117L128.483 24.7798C128.268 25.5239 127.884 26.1729 127.33 26.7268C126.776 27.2807 126.094 27.7106 125.284 28.0165C124.473 28.3224 123.58 28.4754 122.605 28.4754Z" fill="#3B659C"/>
<path d="M130.273 32.791V15.7765H133.696V17.1655C133.944 16.8513 134.258 16.5744 134.639 16.3346C135.019 16.0948 135.449 15.9088 135.928 15.7765C136.408 15.6443 136.912 15.5781 137.441 15.5781C138.681 15.5781 139.748 15.8427 140.641 16.3718C141.534 16.9009 142.228 17.6491 142.724 18.6164C143.22 19.5837 143.468 20.7205 143.468 22.0268C143.468 23.0023 143.332 23.8869 143.059 24.6806C142.786 25.4743 142.381 26.1522 141.844 26.7144C141.306 27.2766 140.67 27.7106 139.934 28.0165C139.198 28.3224 138.367 28.4754 137.441 28.4754C136.929 28.4754 136.429 28.4051 135.941 28.2646C135.453 28.124 135.019 27.9339 134.639 27.6941C134.258 27.4544 133.944 27.1774 133.696 26.8632V32.791H130.273ZM136.846 25.5239C137.474 25.5239 138.02 25.3792 138.483 25.0899C138.946 24.8005 139.314 24.3913 139.587 23.8621C139.86 23.333 139.996 22.713 139.996 22.002C139.996 21.291 139.86 20.6957 139.587 20.1666C139.314 19.6375 138.946 19.2241 138.483 18.9265C138.02 18.6288 137.474 18.48 136.846 18.48C136.383 18.48 135.961 18.5627 135.581 18.728C135.201 18.8934 134.87 19.1331 134.589 19.4473C134.308 19.7615 134.089 20.1376 133.932 20.5758C133.775 21.014 133.696 21.4894 133.696 22.002C133.696 22.713 133.833 23.333 134.105 23.8621C134.378 24.3913 134.75 24.8005 135.222 25.0899C135.693 25.3792 136.234 25.5239 136.846 25.5239Z" fill="#3B659C"/>
<path d="M145.102 28.277V15.7765H148.524V17.2895C148.756 16.9423 149.049 16.6364 149.405 16.3718C149.76 16.1072 150.17 15.9088 150.633 15.7765C151.095 15.6443 151.583 15.5781 152.096 15.5781C152.377 15.5781 152.658 15.5988 152.939 15.6401C153.22 15.6815 153.468 15.7435 153.683 15.8261L153.435 19.0753C153.187 18.9761 152.927 18.9058 152.654 18.8644C152.381 18.8231 152.112 18.8024 151.848 18.8024C151.418 18.8024 151.005 18.8934 150.608 19.0753C150.211 19.2572 149.855 19.5341 149.541 19.9061C149.227 20.2782 148.979 20.7742 148.797 21.3943C148.615 22.0144 148.524 22.7543 148.524 23.6141V28.277H145.102Z" fill="#3B659C"/>
<path d="M156.439 14.2633C155.827 14.2633 155.315 14.0649 154.901 13.668C154.488 13.2712 154.281 12.7669 154.281 12.1551C154.281 11.7417 154.376 11.3821 154.566 11.0762C154.757 10.7703 155.013 10.5223 155.335 10.3321C155.658 10.142 156.026 10.0469 156.439 10.0469C157.067 10.0469 157.588 10.2494 158.002 10.6545C158.415 11.0596 158.622 11.5598 158.622 12.1551C158.622 12.5519 158.527 12.9116 158.336 13.234C158.146 13.5564 157.89 13.8086 157.568 13.9905C157.245 14.1723 156.869 14.2633 156.439 14.2633ZM154.703 28.2767V15.7762H158.175V28.2767H154.703ZM154.703 18.5789V15.7762H158.175V18.5789H154.703ZM154.703 28.2767V25.474H158.175V28.2767H154.703Z" fill="#3B659C"/>
<path d="M160.383 28.277V15.7765H163.806V17.2647C164.021 16.9836 164.314 16.7108 164.686 16.4462C165.058 16.1817 165.509 15.9708 166.038 15.8137C166.567 15.6567 167.146 15.5781 167.774 15.5781C168.683 15.5781 169.485 15.7683 170.18 16.1486C170.874 16.5289 171.42 17.0621 171.817 17.7483C172.214 18.4345 172.412 19.282 172.412 20.2906V28.277H168.964V21.0099C168.964 20.5138 168.869 20.0839 168.679 19.7201C168.489 19.3564 168.229 19.0794 167.898 18.8892C167.567 18.6991 167.179 18.604 166.732 18.604C166.12 18.604 165.6 18.7652 165.17 19.0877C164.74 19.4101 164.405 19.8855 164.165 20.5138C163.925 21.1421 163.806 21.911 163.806 22.8204V28.277H160.383Z" fill="#3B659C"/>
<path d="M173.305 18.5772V15.7745H181.638V18.5772H173.305ZM179.902 28.4734C179.042 28.4734 178.261 28.2998 177.558 27.9525C176.856 27.6053 176.302 27.0968 175.897 26.4272C175.491 25.7575 175.289 24.9432 175.289 23.9841V12.7734H178.736V23.6617C178.736 24.257 178.885 24.7117 179.183 25.0258C179.48 25.34 179.886 25.4971 180.398 25.4971C180.597 25.4971 180.799 25.4723 181.006 25.4227C181.213 25.3731 181.423 25.3152 181.638 25.2491L181.886 28.1509C181.605 28.2502 181.291 28.3287 180.944 28.3866C180.597 28.4444 180.249 28.4734 179.902 28.4734Z" fill="#3B659C"/>
<path d="M81.0391 27.2601V9.89844H88.455C89.4802 9.89844 90.3772 10.0803 91.1461 10.4441C91.9149 10.8079 92.5102 11.3163 92.9318 11.9694C93.3535 12.6226 93.5643 13.3956 93.5643 14.2885C93.5643 14.8011 93.4568 15.2971 93.2419 15.7766C93.0269 16.2561 92.7417 16.6736 92.3862 17.0291C92.0307 17.3846 91.6214 17.6533 91.1585 17.8352C91.8033 18.0171 92.3738 18.3147 92.8698 18.7281C93.3659 19.1415 93.7627 19.6375 94.0603 20.2162C94.358 20.795 94.5068 21.4233 94.5068 22.1012C94.5068 23.1264 94.2546 24.0276 93.7503 24.8047C93.246 25.5818 92.5433 26.1854 91.6421 26.6153C90.741 27.0452 89.7034 27.2601 88.5294 27.2601H81.0391ZM84.7594 16.6695H87.8845C88.3144 16.6695 88.6865 16.591 89.0006 16.4339C89.3148 16.2768 89.5628 16.0618 89.7447 15.789C89.9266 15.5162 90.0175 15.1979 90.0175 14.8341C90.0175 14.4704 89.9266 14.1769 89.7447 13.904C89.5628 13.6312 89.3148 13.4204 89.0006 13.2716C88.6865 13.1228 88.3144 13.0483 87.8845 13.0483H84.7594V16.6695ZM84.7594 24.1102H88.1822C88.6782 24.1102 89.1247 24.0152 89.5215 23.825C89.9183 23.6349 90.2284 23.3662 90.4516 23.0189C90.6748 22.6717 90.7864 22.2831 90.7864 21.8532C90.7864 21.3902 90.6748 20.9934 90.4516 20.6627C90.2284 20.332 89.9183 20.0716 89.5215 19.8814C89.1247 19.6913 88.6782 19.5962 88.1822 19.5962H84.7594V24.1102Z" fill="#FFFFFF"/>
<path d="M95.9453 27.2632V9.70312H99.4177V27.2632H95.9453ZM95.9453 12.5058V9.70312H99.4177V12.5058H95.9453ZM95.9453 27.2632V24.4606H99.4177V27.2632H95.9453Z" fill="#FFFFFF"/>
<path d="M106.139 27.4567C105.23 27.4567 104.424 27.2706 103.721 26.8986C103.018 26.5266 102.469 26.0016 102.072 25.3236C101.675 24.6457 101.477 23.8355 101.477 22.893V14.7578H104.924V22.0001C104.924 22.4796 105.019 22.9095 105.209 23.2898C105.399 23.6702 105.664 23.9554 106.003 24.1455C106.342 24.3357 106.735 24.4308 107.181 24.4308C107.793 24.4308 108.314 24.2654 108.744 23.9347C109.174 23.604 109.504 23.1204 109.736 22.4838C109.967 21.8472 110.083 21.0824 110.083 20.1895V14.7578H113.531V27.2582H110.083V25.7701C109.868 26.0512 109.575 26.324 109.203 26.5886C108.83 26.8531 108.384 27.064 107.863 27.221C107.342 27.3781 106.768 27.4567 106.139 27.4567Z" fill="#FFFFFF"/>
<path d="M121.589 27.4598C120.316 27.4598 119.192 27.1828 118.216 26.6289C117.241 26.075 116.484 25.3102 115.947 24.3347C115.409 23.3591 115.141 22.243 115.141 20.9863C115.141 20.0438 115.294 19.184 115.599 18.4069C115.905 17.6297 116.339 16.9518 116.902 16.3731C117.464 15.7944 118.129 15.3479 118.898 15.0337C119.667 14.7196 120.514 14.5625 121.44 14.5625C122.482 14.5625 123.412 14.7444 124.231 15.1082C125.049 15.4719 125.731 15.9886 126.277 16.6583C126.823 17.328 127.207 18.0968 127.43 18.9649C127.653 19.833 127.699 20.7714 127.567 21.78H117.695V19.2998H123.995C123.979 18.8699 123.863 18.4937 123.648 18.1713C123.433 17.8488 123.139 17.6008 122.767 17.4272C122.395 17.2536 121.953 17.1668 121.44 17.1668C120.994 17.1668 120.581 17.2494 120.2 17.4148C119.82 17.5801 119.506 17.824 119.258 18.1465C119.01 18.4689 118.82 18.8616 118.687 19.3246C118.555 19.7875 118.489 20.3167 118.489 20.9119C118.489 21.6725 118.613 22.3298 118.861 22.8837C119.109 23.4376 119.469 23.8634 119.94 24.161C120.411 24.4587 120.961 24.6075 121.589 24.6075C122.019 24.6075 122.42 24.5331 122.792 24.3843C123.164 24.2354 123.478 24.0329 123.735 23.7766C123.991 23.5203 124.169 23.2268 124.268 22.8961L127.467 23.7642C127.252 24.5083 126.868 25.1573 126.314 25.7112C125.76 26.2651 125.078 26.695 124.268 27.0009C123.458 27.3068 122.565 27.4598 121.589 27.4598Z" fill="#FFFFFF"/>
<path d="M129.258 31.7754V14.7609H132.681V16.1499C132.929 15.8357 133.243 15.5587 133.623 15.319C134.003 15.0792 134.433 14.8932 134.913 14.7609C135.392 14.6286 135.897 14.5625 136.426 14.5625C137.666 14.5625 138.732 14.8271 139.625 15.3562C140.518 15.8853 141.213 16.6335 141.709 17.6008C142.205 18.5681 142.453 19.7049 142.453 21.0111C142.453 21.9867 142.316 22.8713 142.043 23.665C141.771 24.4587 141.366 25.1366 140.828 25.6988C140.291 26.261 139.654 26.695 138.918 27.0009C138.183 27.3068 137.352 27.4598 136.426 27.4598C135.913 27.4598 135.413 27.3895 134.925 27.2489C134.437 27.1084 134.003 26.9182 133.623 26.6785C133.243 26.4387 132.929 26.1618 132.681 25.8476V31.7754H129.258ZM135.83 24.5083C136.459 24.5083 137.004 24.3636 137.467 24.0742C137.93 23.7849 138.298 23.3756 138.571 22.8465C138.844 22.3174 138.98 21.6973 138.98 20.9863C138.98 20.2753 138.844 19.6801 138.571 19.1509C138.298 18.6218 137.93 18.2085 137.467 17.9108C137.004 17.6132 136.459 17.4644 135.83 17.4644C135.367 17.4644 134.946 17.5471 134.566 17.7124C134.185 17.8778 133.855 18.1175 133.573 18.4317C133.292 18.7458 133.073 19.122 132.916 19.5602C132.759 19.9984 132.681 20.4737 132.681 20.9863C132.681 21.6973 132.817 22.3174 133.09 22.8465C133.363 23.3756 133.735 23.7849 134.206 24.0742C134.677 24.3636 135.219 24.5083 135.83 24.5083Z" fill="#FFFFFF"/>
<path d="M144.086 27.2613V14.7609H147.509V16.2739C147.74 15.9266 148.034 15.6207 148.389 15.3562C148.745 15.0916 149.154 14.8932 149.617 14.7609C150.08 14.6286 150.568 14.5625 151.08 14.5625C151.361 14.5625 151.642 14.5832 151.924 14.6245C152.205 14.6658 152.453 14.7278 152.668 14.8105L152.42 18.0596C152.172 17.9604 151.911 17.8902 151.638 17.8488C151.365 17.8075 151.097 17.7868 150.832 17.7868C150.402 17.7868 149.989 17.8778 149.592 18.0596C149.195 18.2415 148.84 18.5185 148.526 18.8905C148.211 19.2626 147.963 19.7586 147.782 20.3787C147.6 20.9987 147.509 21.7387 147.509 22.5985V27.2613H144.086Z" fill="#FFFFFF"/>
<path d="M155.423 13.2477C154.812 13.2477 154.299 13.0492 153.886 12.6524C153.472 12.2556 153.266 11.7513 153.266 11.1395C153.266 10.7261 153.361 10.3664 153.551 10.0606C153.741 9.75465 153.997 9.50663 154.32 9.31648C154.642 9.12633 155.01 9.03125 155.423 9.03125C156.052 9.03125 156.573 9.2338 156.986 9.63891C157.399 10.044 157.606 10.5442 157.606 11.1395C157.606 11.5363 157.511 11.8959 157.321 12.2184C157.131 12.5408 156.874 12.793 156.552 12.9748C156.23 13.1567 155.853 13.2477 155.423 13.2477ZM153.687 27.261V14.7606H157.16V27.261H153.687ZM153.687 17.5633V14.7606H157.16V17.5633H153.687ZM153.687 27.261V24.4584H157.16V27.261H153.687Z" fill="#FFFFFF"/>
<path d="M159.367 27.2613V14.7609H162.79V16.2491C163.005 15.968 163.298 15.6951 163.67 15.4306C164.042 15.166 164.493 14.9552 165.022 14.7981C165.551 14.641 166.13 14.5625 166.758 14.5625C167.668 14.5625 168.47 14.7527 169.164 15.133C169.859 15.5133 170.404 16.0465 170.801 16.7327C171.198 17.4189 171.396 18.2663 171.396 19.275V27.2613H167.949V19.9942C167.949 19.4982 167.854 19.0683 167.664 18.7045C167.473 18.3407 167.213 18.0638 166.882 17.8736C166.552 17.6835 166.163 17.5884 165.717 17.5884C165.105 17.5884 164.584 17.7496 164.154 18.072C163.724 18.3945 163.389 18.8699 163.15 19.4982C162.91 20.1265 162.79 20.8954 162.79 21.8048V27.2613H159.367Z" fill="#FFFFFF"/>
<path d="M172.289 17.5616V14.7589H180.623V17.5616H172.289ZM178.887 27.4578C178.027 27.4578 177.245 27.2841 176.543 26.9369C175.84 26.5897 175.286 26.0812 174.881 25.4116C174.476 24.7419 174.273 23.9275 174.273 22.9685V11.7578H177.721V22.6461C177.721 23.2413 177.87 23.696 178.167 24.0102C178.465 24.3244 178.87 24.4815 179.383 24.4815C179.581 24.4815 179.784 24.4567 179.99 24.4071C180.197 24.3574 180.408 24.2996 180.623 24.2334L180.871 27.1353C180.59 27.2345 180.275 27.3131 179.928 27.3709C179.581 27.4288 179.234 27.4578 178.887 27.4578Z" fill="#FFFFFF"/>
</svg>
